<?xml version="1.0" encoding="utf-8"?>
<!-- Generator: Adobe Illustrator 24.1.1, SVG Export Plug-In . SVG Version: 6.00 Build 0)  -->
<svg version="1.1" id="Livello_1" xmlns="http://www.w3.org/2000/svg" xmlns:xlink="http://www.w3.org/1999/xlink" x="0px" y="0px"
	 viewBox="0 0 1080 1920" style="enable-background:new 0 0 1080 1920;" xml:space="preserve">
<style type="text/css">
	.st0{fill:#470B07;}
	.st1{fill:#78260A;}
	.st2{fill:#D14E0D;}
	.st3{fill:#FFCD09;}
	.st4{fill:#9E1E02;}
</style>
<path class="st0" d="M0,0v44.57V98.7v37.24c0,16.09,13.05,29.14,29.14,29.14h14.78c12.97,0,23.49-10.52,23.49-23.49v0
	c0-7.9,6.4-14.3,14.3-14.3h4.49c7.9,0,14.3,6.4,14.3,14.3v15.66c0,16.73,13.56,30.3,30.3,30.3h4.94c17.77,0,32.17-14.4,32.17-32.17
	V113c0-7.9,6.4-14.3,14.3-14.3h6.13c7.9,0,14.3,6.4,14.3,14.3v6.3c0,17.96,14.56,32.51,32.51,32.51h11.4
	c12.97,0,23.49-10.52,23.49-23.49v0c0-7.9,6.4-14.3,14.3-14.3h4.09c7.9,0,14.3,6.4,14.3,14.3v21.62c0,20.78,16.84,37.62,37.62,37.62
	h0c16.45,0,29.79-13.34,29.79-29.79V113c0-7.9,6.4-14.3,14.3-14.3h8.17c7.9,0,14.3,6.4,14.3,14.3v20.26
	c0,20.21,16.39,36.6,36.6,36.6h2.54c15.61,0,28.27-12.66,28.27-28.27v0c0-7.9,6.4-14.3,14.3-14.3h14.3c7.9,0,14.3,6.4,14.3,14.3
	v14.64c0,17.3,14.02,31.32,31.32,31.32h8.85c15.04,0,27.23-12.19,27.23-27.23v-32c0-7.9,6.4-14.3,14.3-14.3h10.21
	c7.9,0,14.3,6.4,14.3,14.3v0c0,16.92,13.72,30.64,30.64,30.64h4.77c17.67,0,32-14.33,32-32V113c0-7.9,6.4-14.3,14.3-14.3h0
	c7.9,0,14.3,6.4,14.3,14.3v0c0,16.36,13.26,29.62,29.62,29.62h8.17c16.36,0,29.62-13.26,29.62-29.62v0c0-7.9,6.4-14.3,14.3-14.3
	h5.11c7.9,0,14.3,6.4,14.3,14.3v38.81c0,19.74,16,35.74,35.74,35.74h0c17.49,0,31.66-14.17,31.66-31.66v-27.57
	c0-7.9,6.4-14.3,14.3-14.3h0.05c7.9,0,14.3,6.4,14.3,14.3v0c0,12.97,10.52,23.49,23.49,23.49h22.1c12.05,0,21.81-9.77,21.81-21.81
	V113c0-7.9,6.4-14.3,14.3-14.3h0.05c7.9,0,14.3,6.4,14.3,14.3v0c0,21.43,17.38,38.81,38.81,38.81h0c15.79,0,28.6-12.8,28.6-28.6
	V98.7V31.3V0.04c0-0.02-0.02-0.04-0.04-0.04H0z"/>
</svg>
