<?xml version="1.0" encoding="UTF-8" standalone="no"?>
<svg
   xmlns:dc="http://purl.org/dc/elements/1.1/"
   xmlns:cc="http://creativecommons.org/ns#"
   xmlns:rdf="http://www.w3.org/1999/02/22-rdf-syntax-ns#"
   xmlns:svg="http://www.w3.org/2000/svg"
   xmlns="http://www.w3.org/2000/svg"
   xmlns:sodipodi="http://sodipodi.sourceforge.net/DTD/sodipodi-0.dtd"
   xmlns:inkscape="http://www.inkscape.org/namespaces/inkscape"
   width="210mm"
   height="297mm"
   viewBox="0 0 210 297"
   version="1.1"
   id="svg8"
   inkscape:version="1.0.1 (3bc2e813f5, 2020-09-07)"
   sodipodi:docname="nav.svg">
  <defs
     id="defs2" />
  <sodipodi:namedview
     id="base"
     pagecolor="#ffffff"
     bordercolor="#666666"
     borderopacity="1.0"
     inkscape:pageopacity="0.0"
     inkscape:pageshadow="2"
     inkscape:zoom="1.4"
     inkscape:cx="432.98377"
     inkscape:cy="487.24722"
     inkscape:document-units="mm"
     inkscape:current-layer="layer1"
     inkscape:document-rotation="0"
     showgrid="false"
     inkscape:window-width="1920"
     inkscape:window-height="991"
     inkscape:window-x="-9"
     inkscape:window-y="-9"
     inkscape:window-maximized="1" />
  <metadata
     id="metadata5">
    <rdf:RDF>
      <cc:Work
         rdf:about="">
        <dc:format>image/svg+xml</dc:format>
        <dc:type
           rdf:resource="http://purl.org/dc/dcmitype/StillImage" />
        <dc:title />
      </cc:Work>
    </rdf:RDF>
  </metadata>
  <g
     inkscape:label="Livello 1"
     inkscape:groupmode="layer"
     id="layer1">
    <path
       id="rect833"
       style="fill:#96bb7c;fill-opacity:1;fill-rule:evenodd;stroke:none;stroke-width:6.07743;stroke-linecap:round;stroke-linejoin:round;paint-order:markers stroke fill;stop-color:#000000"
       d="m -1.1536637,110.03682 v 29.32741 c 0,0 10.3063118,13.13137 15.8029407,8.75417 1.832211,-1.45904 2.565715,-4.30849 5.496695,-4.37726 8.745147,-0.20523 7.629045,13.08093 16.352002,12.63437 8.231122,-0.42139 7.07557,-12.77978 15.253409,-13.50944 5.953556,-0.53122 15.056287,10.00698 20.923052,10.84278 11.114785,1.58345 14.586059,-10.36723 25.798157,-9.09226 10.510038,1.19515 15.464308,12.33899 26.109178,11.81867 11.1427,-0.54466 12.92277,-14.20651 24.04775,-14.88239 8.72646,-0.53015 9.79372,11.2128 18.39554,10.13686 4.36357,-0.54581 6.76453,-7.47522 11.14891,-7.94859 8.40048,-0.907 12.28399,10.77656 20.612,9.63002 8.21901,-1.13153 12.36769,-14.00693 12.36769,-14.00693 v -29.32741 z"
       sodipodi:nodetypes="ccscsssssssssccc" />
  </g>
</svg>
