<?xml version="1.0" encoding="UTF-8" standalone="no"?>
<svg
   xmlns:dc="http://purl.org/dc/elements/1.1/"
   xmlns:cc="http://creativecommons.org/ns#"
   xmlns:rdf="http://www.w3.org/1999/02/22-rdf-syntax-ns#"
   xmlns:svg="http://www.w3.org/2000/svg"
   xmlns="http://www.w3.org/2000/svg"
   xmlns:sodipodi="http://sodipodi.sourceforge.net/DTD/sodipodi-0.dtd"
   xmlns:inkscape="http://www.inkscape.org/namespaces/inkscape"
   width="210mm"
   height="297mm"
   viewBox="0 0 210 297"
   version="1.1"
   id="svg8"
   inkscape:version="1.0.1 (3bc2e813f5, 2020-09-07)"
   sodipodi:docname="nav.svg">
  <defs
     id="defs2" />
  <sodipodi:namedview
     id="base"
     pagecolor="#ffffff"
     bordercolor="#666666"
     borderopacity="1.0"
     inkscape:pageopacity="0.0"
     inkscape:pageshadow="2"
     inkscape:zoom="1.4"
     inkscape:cx="329.88853"
     inkscape:cy="472.00912"
     inkscape:document-units="mm"
     inkscape:current-layer="layer1"
     inkscape:document-rotation="0"
     showgrid="false"
     inkscape:window-width="1631"
     inkscape:window-height="1020"
     inkscape:window-x="128"
     inkscape:window-y="0"
     inkscape:window-maximized="0" />
  <metadata
     id="metadata5">
    <rdf:RDF>
      <cc:Work
         rdf:about="">
        <dc:format>image/svg+xml</dc:format>
        <dc:type
           rdf:resource="http://purl.org/dc/dcmitype/StillImage" />
        <dc:title></dc:title>
      </cc:Work>
    </rdf:RDF>
  </metadata>
  <g
     inkscape:label="Livello 1"
     inkscape:groupmode="layer"
     id="layer1">
    <path
       id="rect833"
       style="fill:#96bb7c;fill-opacity:1;fill-rule:evenodd;stroke:none;stroke-width:4.59113;stroke-linecap:round;stroke-linejoin:round;paint-order:markers stroke fill;stop-color:#000000"
       d="m -1.1536637,129.96375 v 16.73684 c 0,0 10.3063118,7.49393 15.8029407,4.99591 1.832211,-0.83266 2.565715,-2.45881 5.496695,-2.49806 8.745147,-0.11712 9.14095,7.24944 17.863907,6.99459 8.231122,-0.24048 5.563665,-7.07757 13.741504,-7.49398 5.953556,-0.30316 7.874739,3.76951 13.741504,4.24649 11.114785,0.90366 21.767607,-3.9751 32.979705,-3.24749 10.510038,0.68206 15.464308,7.04173 26.109178,6.74479 11.1427,-0.31083 12.92277,-8.1075 24.04775,-8.49322 8.72646,-0.30255 13.38449,5.85976 21.98631,5.24573 4.36357,-0.31149 3.17376,-3.72676 7.55814,-3.99691 8.40048,-0.51761 12.28399,6.15007 20.612,5.49575 8.21901,-0.64575 12.36769,-7.9936 12.36769,-7.9936 v -16.73684 z" />
  </g>
</svg>
